<?xml version="1.0" encoding="UTF-8"?>
<svg width="300mm" height="124mm" version="1.1" viewBox="0 0 300 124" xmlns="http://www.w3.org/2000/svg"><path d="m229.46542 0c-27.68734 0-60.39879 7.4212918-91.76549 18.198712-14.77075 5.075058-29.24827 10.922789-42.774644 17.157425l5.491014.02227v6.177646c3.969-5.317058 8.92532-7.454846 17.38072-7.157267 8.54233.300821 14.04799 3.553796 14.04799 11.690402v19.10785h-14.78203v-16.906236c-.64385-4.845898-2.75047-6.085889-8.10962-5.738635-5.68744.37001-6.89355 3.179362-7.54018 8.73945v13.937944h-14.573366v-25.990127l-10.422044 5.441056 5.699841-9.304896h-15.970945l-6.682176 12.003445-1.224537 3.350412-1.313352-3.519117-6.339036-11.846924h-16.7764l16.766062 25.097858c-11.625998 8.176533-41.7041563 30.428975-35.985143 48.285592 4.553407 14.25472 29.319696 15.21575 39.043429 15.25231 41.430657.1569 124.098357-21.9359 177.961407-58.798195h-1.55028v-4.721899c-6.78162 7.650732-22.05839 8.342615-29.14581.882624-3.41196-3.586038-5.00361-7.211815-4.17296-13.731748.40336-3.169427 1.88975-7.74249 8.74629-11.229271 4.53854-2.309869 17.96718-4.392079 24.58283 3.769552v-4.813656h13.47374v21.377887c3.5612-2.735384 6.63489-5.354266 9.42486-7.993019-1.13421 19.842662 24.3535 21.997413 33.49829 11.816932v4.635109h13.54612v-29.859122h-13.54612v4.806158c-4.84936-6.004066-13.84406-6.966254-21.54899-4.798753 19.82508-30.0939846-15.59448-35.341769-35.43947-35.341769zm-229.46542 21.823083v43.399674h37.551879v-10.168298h-20.889202v-33.231376zm173.76026 18.209964v-4.654885h13.48598v29.883491c-.40736 9.993967-8.16687 12.915396-22.20501 13.352158-7.82119.243209-22.23037-1.085719-22.56777-10.041767h15.40138c.22589 2.452237 4.62305 3.052832 7.24421 3.06033 7.17457.01639 8.07232-2.804834 7.88331-11.397979-5.98584 6.683578-16.26136 6.867092-23.78395 3.8316-5.08066-2.049218-8.95024-7.139834-9.02975-13.977309-.0942-8.208775 5.80971-13.167519 11.96436-14.785223 7.86366-2.066463 16.46249-1.2518 21.60724 4.729584zm103.76932 2.480449c4.3688-.02513 9.6805 2.618883 9.68144 7.772296.002 5.632067-5.19005 7.352684-9.12674 7.484556-4.3097.144404-10.70908-1.215803-10.52449-7.506863.18991-6.472017 6.03384-7.727352 9.96979-7.749989zm-56.55104.06683c-4.65265-.04868-9.86471 2.001887-9.9023 7.705281-.0405 6.125535 6.02569 7.547166 10.25851 7.46225 4.0237-.08073 9.43801-1.732519 9.45963-7.484556.0207-5.483889-5.63969-7.639298-9.81584-7.682975zm-55.95423.251467c-4.93715-.13968-10.26509 2.057184-10.26791 7.045639-.003 6.190017 5.85153 7.873894 10.11189 7.797038 4.07099-.07346 9.41922-1.856799 9.39037-7.797038-.0267-5.480983-5.65256-6.944322-9.23435-7.045639zm-109.727981 35.885688-16.438052-.124965 11.926751-17.846303 25.287721-15.856508z" fill="#fff" stroke-width="0"/></svg>
